<svg viewBox="0 0 24 24" fill="none" xmlns="http://www.w3.org/2000/svg" stroke="#ffffff" stroke-width="0.00024000000000000003"><g id="SVGRepo_bgCarrier" stroke-width="0"></g><g id="SVGRepo_tracerCarrier" stroke-linecap="round" stroke-linejoin="round"></g><g id="SVGRepo_iconCarrier"> <path d="M11.75 6C7.89 6 4.75 9.14 4.75 13C4.75 16.86 7.89 20 11.75 20C15.61 20 18.75 16.86 18.75 13C18.75 9.14 15.61 6 11.75 6ZM11.75 18.5C8.72 18.5 6.25 16.03 6.25 13C6.25 9.97 8.72 7.5 11.75 7.5C14.78 7.5 17.25 9.97 17.25 13C17.25 16.03 14.78 18.5 11.75 18.5ZM8.5 4.75C8.5 4.34 8.84 4 9.25 4H14.25C14.66 4 15 4.34 15 4.75C15 5.16 14.66 5.5 14.25 5.5H9.25C8.84 5.5 8.5 5.16 8.5 4.75ZM12.5 10V13C12.5 13.41 12.16 13.75 11.75 13.75C11.34 13.75 11 13.41 11 13V10C11 9.59 11.34 9.25 11.75 9.25C12.16 9.25 12.5 9.59 12.5 10ZM19.04 8.27C18.89 8.42 18.7 8.49 18.51 8.49C18.32 8.49 18.13 8.42 17.98 8.27L16.48 6.77C16.19 6.48 16.19 6 16.48 5.71C16.77 5.42 17.25 5.42 17.54 5.71L19.04 7.21C19.33 7.5 19.33 7.98 19.04 8.27Z" fill="#fff"></path> </g></svg>