<svg width="27" height="26" viewBox="0 0 27 26" fill="none" xmlns="http://www.w3.org/2000/svg">
<path opacity="0.9" d="M13.1911 1.08156C13.3408 0.620904 13.9925 0.620901 14.1422 1.08156L16.5588 8.51925C16.7597 9.13729 17.3356 9.55573 17.9854 9.55573H25.8059C26.2902 9.55573 26.4916 10.1755 26.0998 10.4602L19.7729 15.057C19.2472 15.439 19.0272 16.116 19.228 16.734L21.6446 24.1717C21.7943 24.6324 21.2671 25.0154 20.8752 24.7307L14.5483 20.134C14.0226 19.752 13.3107 19.752 12.785 20.134L6.45809 24.7307C6.06624 25.0154 5.539 24.6324 5.68868 24.1717L8.10533 16.734C8.30614 16.116 8.08615 15.4389 7.56042 15.057L1.23354 10.4602C0.841686 10.1755 1.04307 9.55573 1.52744 9.55573H9.34789C9.99773 9.55573 10.5737 9.13729 10.7745 8.51925L13.1911 1.08156Z" stroke="white"/>
</svg>
