<svg width="32" height="33" viewBox="0 0 32 33" fill="none" xmlns="http://www.w3.org/2000/svg">
<path d="M9.59731 12.3944L9.59149 12.4026L9.58601 12.4111C9.18391 13.0325 8.21655 13.0046 7.80986 12.318L5.41182 8.09284L5.4111 8.09157C4.84018 7.09247 5.03265 5.868 5.8793 5.11434C12.5742 -0.74919 22.8702 0.356251 28.2391 7.3303L28.2406 7.33226C28.777 8.02197 28.2897 9.0397 27.3781 9.0397H27.3586H27.3392H27.3197H27.3003H27.2808H27.2613H27.2418H27.2223H27.2028H27.1832H27.1637H27.1441H27.1245H27.1049H27.0853H27.0657H27.0461H27.0265H27.0068H26.9872H26.9675H26.9478H26.9281H26.9084H26.8887H26.869H26.8493H26.8295H26.8098H26.79H26.7702H26.7504H26.7306H26.7108H26.691H26.6712H26.6514H26.6315H26.6117H26.5918H26.5719H26.552H26.5321H26.5122H26.4923H26.4724H26.4525H26.4326H26.4126H26.3927H26.3727H26.3527H26.3328H26.3128H26.2928H26.2728H26.2528H26.2327H26.2127H26.1927H26.1727H26.1526H26.1326H26.1125H26.0924H26.0723H26.0523H26.0322H26.0121H25.992H25.9719H25.9518H25.9316H25.9115H25.8914H25.8712H25.8511H25.8309H25.8108H25.7906H25.7705H25.7503H25.7301H25.7099H25.6897H25.6695H25.6493H25.6291H25.6089H25.5887H25.5685H25.5483H25.5281H25.5078H25.4876H25.4674H25.4471H25.4269H25.4066H25.3864H25.3661H25.3458H25.3256H25.3053H25.285H25.2648H25.2445H25.2242H25.2039H25.1836H25.1633H25.1431H25.1228H25.1025H25.0822H25.0619H25.0416H25.0213H25.001H24.9806H24.9603H24.94H24.9197H24.8994H24.8791H24.8588H24.8384H24.8181H24.7978H24.7775H24.7572H24.7368H24.7165H24.6962H24.6759H24.6555H24.6352H24.6149H24.5946H24.5742H24.5539H24.5336H24.5133H24.4929H24.4726H24.4523H24.432H24.4116H24.3913H24.371H24.3507H24.3304H24.31H24.2897H24.2694H24.2491H24.2288H24.2085H24.1882H24.1679H24.1476H24.1273H24.107H24.0867H24.0664H24.0461H24.0258H24.0055H23.9852H23.965H23.9447H23.9244H23.9041H23.8839H23.8636H23.8434H23.8231H23.8028H23.7826H23.7623H23.7421H23.7219H23.7016H23.6814H23.6612H23.641H23.6207H23.6005H23.5803H23.5601H23.5399H23.5197H23.4995H23.4794H23.4592H23.439H23.4188H23.3987H23.3785H23.3584H23.3382H23.3181H23.298H23.2778H23.2577H23.2376H23.2175H23.1974H23.1773H23.1572H23.1372H23.1171H23.097H23.077H23.0569H23.0369H23.0168H22.9968H22.9768H22.9568H22.9367H22.9167H22.8968H22.8768H22.8568H22.8368H22.8169H22.7969H22.777H22.757H22.7371H22.7172H22.6973H22.6774H22.6575H22.6376H22.6178H22.5979H22.5781H22.5582H22.5384H22.5186H22.4987H22.4789H22.4591H22.4394H22.4196H22.3998H22.3801H22.3603H22.3406H22.3209H22.3012H22.2815H22.2618H22.2421H22.2224H22.2028H22.1831H22.1635H22.1439H22.1243H22.1047H22.0851H22.0655H22.046H22.0264H22.0069H21.9873H21.9678H21.9483H21.9288H21.9094H21.8899H21.8705H21.851H21.8316H21.8122H21.7928H21.7734H21.754H21.7347H21.7153H21.696H21.6767H21.6574H21.6381H21.6188H21.5996H21.5803H21.5611H21.5419H21.5227H21.5035H21.4843H21.4651H21.446H21.4269H21.4077H21.3887H21.3696H21.3505H21.3314H21.3124H21.2934H21.2744H21.2554H21.2364H21.2175H21.1985H21.1796H21.1607H21.1418H21.1229H21.1041H21.0852H21.0664H21.0476H21.0288H21.01H20.9913H20.9725H20.9538H20.9351H20.9164H20.8977H20.8791H20.8604H20.8418H20.8232H20.8046H20.7861H20.7675H20.749H20.7305H20.712H20.6935H20.6751H20.6567H20.6382H20.6198H20.6015H20.5831H20.5648H20.5465H20.5282H20.5099H20.4916H20.4734H20.4552H20.437H20.4188H20.4006H20.3825H20.3644H20.3463H20.3282H20.3101H20.2921H20.2741H20.2561H20.2381H20.2202H20.2022H20.1843H20.1664H20.1486H20.1307H20.1129H20.0951H20.0773H20.0596H20.0418H20.0241H20.0064H19.9888H19.9711H19.9535H19.9359H19.9183H19.9008H19.8832H19.8657H19.8482H19.8308H19.8133H19.7959H19.7785H19.7612H19.7438H19.7265H19.7092H19.6919H19.6747H19.6574H19.6402H19.6231H19.6059H19.5888H19.5717H19.5546H19.5375H19.5205H19.5035H19.4865H19.4696H19.4527H19.4358H19.4189H19.402H19.3852H19.3684H19.3516H19.3349H19.3182H19.3015H19.2848H19.2681H19.2515H19.2349H19.2184H19.2018H19.1853H19.1688H19.1524H19.136H19.1196H19.1032H19.0868H19.0705H19.0542H19.038H19.0217H19.0055H18.9893H18.9732H18.957H18.941H18.9249H18.9088H18.8928H18.8768H18.8609H18.845H18.8291H18.8132H18.7974H18.7816H18.7658H18.75H18.7343H18.7186H18.7029H18.6873H18.6717H18.6561H18.6406H18.6251H18.6096H18.5941H18.5787H18.5633H18.548H18.5326H18.5173H18.5021H18.4868H18.4716H18.4565H18.4413H18.4262H18.4111H18.3961H18.3811H18.3661H18.3511H18.3362H18.3213H18.3064H18.2916H18.2768H18.2621H18.2473H18.2326H18.218H18.2033H18.1887H18.1742H18.1596H18.1451H18.1307H18.1162H18.1018H18.0875H18.0732H18.0589H18.0446H18.0304H18.0162H18.002H17.9879H17.9738H17.9597H17.9457H17.9317H17.9177H17.9038H17.8899H17.8761H17.8623H17.8485H17.8347V9.03954L17.8219 9.03986C17.5912 9.04578 17.3667 9.05033 17.1476 9.05477C15.2991 9.09225 13.84 9.12184 12.3472 9.89586L12.3408 9.89917L12.3345 9.90266C11.2342 10.514 10.3222 11.3674 9.59731 12.3944Z" stroke="white"/>
<path d="M16.9963 21.5638L16.9963 21.5638L16.9937 21.5643C13.8853 22.186 11.1968 19.809 11.2485 16.8058L11.2486 16.8058V16.7972C11.2486 14.1589 13.4249 11.9827 16.0632 11.9827C19.0135 11.9827 21.3931 14.6729 20.7739 17.7811C20.3561 19.7064 18.8479 21.2038 16.9963 21.5638Z" stroke="white"/>
<path d="M9.23193 20.6508L9.23298 20.6526C10.3791 22.5829 12.0231 23.8125 13.8124 24.3071C15.2387 24.7233 15.8837 26.4569 15.1165 27.8038L13.0656 31.2788C12.7744 31.7312 12.3063 31.9125 11.8465 31.7998C2.77652 29.3073 -1.82007 19.345 1.66725 10.9311L1.67002 10.9244L1.67259 10.9177C1.97456 10.125 3.13934 10.031 3.56738 10.8092L3.56729 10.8093L3.57227 10.8179C4.28621 12.0568 5.08619 13.4521 5.86922 14.8177C7.21397 17.1632 8.50875 19.4214 9.23193 20.6508Z" stroke="white"/>
<path d="M22.7208 20.7689L22.7255 20.7611L22.7299 20.7532C23.7006 18.9937 24.0104 16.9211 23.5196 15.017C23.1419 13.5018 24.278 12.0398 25.8351 12.0398H29.8924C30.4299 12.0398 30.8401 12.3633 30.9503 12.804L30.9502 12.804L30.953 12.8143C33.4431 21.9448 27.1334 31.0822 17.9434 32.2448L17.9434 32.2448L17.9386 32.2454C17.0785 32.3627 16.4316 31.4223 16.892 30.6551L16.8938 30.652C17.6699 29.337 18.5425 27.8529 19.3838 26.4222C20.7751 24.0561 22.0805 21.8361 22.7208 20.7689Z" stroke="white"/>
</svg>
