<svg width="38" height="38" viewBox="0 0 38 38" fill="none" xmlns="http://www.w3.org/2000/svg">
<path d="M30.1676 33.8494H27.2101C25.4701 33.8494 24.472 31.8871 23.5918 30.1557C22.955 28.9038 22.2336 27.485 21.5098 27.485H16.0244C15.1935 27.485 14.4703 28.9109 13.7709 30.2902C12.8832 32.04 11.9656 33.8494 10.3247 33.8494H7.36785C5.46904 33.8494 3.9241 32.3051 3.9241 30.406V17.6573C3.9241 15.7584 5.46874 14.2135 7.36785 14.2135H30.1679C32.0667 14.2135 33.6116 15.7584 33.6116 17.6573V30.406C33.6113 32.3048 32.0667 33.8494 30.1676 33.8494ZM16.0244 26.2972H21.5104C22.9627 26.2972 23.7824 27.9101 24.6507 29.6175C25.4116 31.114 26.1986 32.6619 27.2104 32.6619H30.1679C31.4118 32.6619 32.4241 31.6499 32.4241 30.406V17.6573C32.4241 16.4133 31.4121 15.401 30.1679 15.401H7.36785C6.12395 15.401 5.1116 16.4133 5.1116 17.6573V30.406C5.1116 31.6496 6.12365 32.6619 7.36785 32.6619H10.3247C11.2364 32.6619 11.9866 31.1832 12.7116 29.7531C13.5731 28.0541 14.4641 26.2972 16.0244 26.2972Z" fill="white"/>
<path d="M11.0188 24.957C9.13631 24.957 7.60474 23.4252 7.60474 21.543C7.60474 19.6602 9.13631 18.1289 11.0188 18.1289C12.9013 18.1289 14.4329 19.6605 14.4329 21.543C14.4329 23.4252 12.9013 24.957 11.0188 24.957ZM11.0188 19.3164C9.79092 19.3164 8.79224 20.3151 8.79224 21.543C8.79224 22.7705 9.79092 23.7695 11.0188 23.7695C12.2467 23.7695 13.2454 22.7705 13.2454 21.543C13.2454 20.3154 12.2467 19.3164 11.0188 19.3164Z" fill="white"/>
<path d="M26.6418 20.8311C26.3141 20.8311 26.0481 20.5651 26.0481 20.2373V18.8711C26.0481 18.5433 26.3141 18.2773 26.6418 18.2773C26.9696 18.2773 27.2356 18.5433 27.2356 18.8711V20.2373C27.2356 20.5648 26.9699 20.8311 26.6418 20.8311Z" fill="white"/>
<path d="M26.6418 24.8086C26.3141 24.8086 26.0481 24.5426 26.0481 24.2149V22.8486C26.0481 22.5206 26.3141 22.2549 26.6418 22.2549C26.9696 22.2549 27.2356 22.5206 27.2356 22.8486V24.2149C27.2356 24.5426 26.9699 24.8086 26.6418 24.8086Z" fill="white"/>
<path d="M25.4184 22.1367H24.0522C23.7245 22.1367 23.4585 21.8707 23.4585 21.543C23.4585 21.2152 23.7245 20.9492 24.0522 20.9492H25.4184C25.7462 20.9492 26.0122 21.2152 26.0122 21.543C26.0122 21.8707 25.7465 22.1367 25.4184 22.1367Z" fill="white"/>
<path d="M29.2321 22.1367H27.8659C27.5381 22.1367 27.2721 21.8707 27.2721 21.543C27.2721 21.2152 27.5381 20.9492 27.8659 20.9492H29.2321C29.5598 20.9492 29.8258 21.2152 29.8258 21.543C29.8258 21.8707 29.5598 22.1367 29.2321 22.1367Z" fill="white"/>
<path d="M18.7156 15.401C18.3879 15.401 18.1219 15.135 18.1219 14.8072V4.75562C18.1219 4.42786 18.3879 4.16187 18.7156 4.16187C19.0434 4.16187 19.3094 4.42786 19.3094 4.75562V14.8072C19.3094 15.135 19.0434 15.401 18.7156 15.401Z" fill="white"/>
</svg>
