<svg width="23" height="34" viewBox="0 0 23 34" fill="none" xmlns="http://www.w3.org/2000/svg">
<rect x="0.5" y="13.9282" width="21.8575" height="19.5717" stroke="white"/>
<path d="M4.57149 13.5716V7.85724C4.57149 4.07009 7.64158 1 11.4287 1V1C15.2159 1 18.286 4.07009 18.286 7.85724V13.5716" stroke="white"/>
<mask id="path-3-outside-1_520_413" maskUnits="userSpaceOnUse" x="9.28585" y="19.2856" width="5" height="9" fill="black">
<rect fill="white" x="9.28585" y="19.2856" width="5" height="9"/>
<path fill-rule="evenodd" clip-rule="evenodd" d="M12.3811 22.8925C12.7986 22.6509 13.0795 22.1995 13.0795 21.6825C13.0795 20.911 12.4542 20.2856 11.6827 20.2856C10.9112 20.2856 10.2859 20.911 10.2859 21.6825C10.2859 22.1995 10.5668 22.6509 10.9843 22.8925V26.5722C10.9843 26.9584 11.2965 27.2706 11.6827 27.2706C12.0689 27.2706 12.3811 26.9584 12.3811 26.5722V22.8925Z"/>
</mask>
<path d="M12.3811 22.8925L11.8804 22.0269L11.3811 22.3157V22.8925H12.3811ZM10.9843 22.8925H11.9843V22.3157L11.485 22.0269L10.9843 22.8925ZM12.8819 23.7581C13.5957 23.3451 14.0795 22.5709 14.0795 21.6825H12.0795C12.0795 21.8281 12.0016 21.9567 11.8804 22.0269L12.8819 23.7581ZM14.0795 21.6825C14.0795 20.3587 13.0064 19.2856 11.6827 19.2856V21.2856C11.9019 21.2856 12.0795 21.4633 12.0795 21.6825H14.0795ZM11.6827 19.2856C10.359 19.2856 9.28585 20.3587 9.28585 21.6825H11.2859C11.2859 21.4633 11.4635 21.2856 11.6827 21.2856V19.2856ZM9.28585 21.6825C9.28585 22.5709 9.76974 23.3452 10.4836 23.7581L11.485 22.0269C11.3638 21.9567 11.2859 21.8281 11.2859 21.6825H9.28585ZM11.9843 26.5722V22.8925H9.98428V26.5722H11.9843ZM11.6827 26.2706C11.8488 26.2706 11.9843 26.4061 11.9843 26.5722H9.98428C9.98428 27.5107 10.7442 28.2706 11.6827 28.2706V26.2706ZM11.3811 26.5722C11.3811 26.4061 11.5166 26.2706 11.6827 26.2706V28.2706C12.6212 28.2706 13.3811 27.5107 13.3811 26.5722H11.3811ZM11.3811 22.8925V26.5722H13.3811V22.8925H11.3811Z" fill="white" mask="url(#path-3-outside-1_520_413)"/>
</svg>
