<svg width="33" height="29" viewBox="0 0 33 29" fill="none" xmlns="http://www.w3.org/2000/svg">
<path opacity="0.9" fill-rule="evenodd" clip-rule="evenodd" d="M1 13.0932V2C1 1.44771 1.44772 1 2 1H6.2C6.75228 1 7.2 1.44772 7.2 2V13.1875C7.21589 16.2635 8.13772 18.3328 9.66312 19.7687C11.2256 21.2241 13.3124 22.0659 16.5 22.0659C19.6944 22.0659 21.8035 21.2203 23.362 19.7687C24.8744 18.3448 25.8 16.2534 25.8 13.0932V2C25.8 1.44771 26.2477 1 26.8 1H31C31.5523 1 32 1.44772 32 2V13.0932C32 17.4345 30.6702 21.216 27.6923 24.0156C24.758 26.7519 20.9814 28 16.5 28C12.012 28 8.26317 26.7482 5.33289 24.0156C2.36987 21.23 1.01987 17.3827 1 13.0932ZM19.6 12.8682V2C19.6 1.44772 19.1523 1 18.6 1H14.4C13.8477 1 13.4 1.44772 13.4 2V12.9012C13.4051 14.0205 13.7124 14.7733 14.221 15.2956C14.7419 15.8248 15.4374 16.131 16.5 16.131C17.5649 16.131 18.2678 15.8235 18.7873 15.2956C19.2914 14.7778 19.6 14.0173 19.6 12.8682Z" stroke="white"/>
</svg>
