<svg width="26" height="32" viewBox="0 0 26 32" fill="none" xmlns="http://www.w3.org/2000/svg">
<path fill-rule="evenodd" clip-rule="evenodd" d="M13 21.1629C11.6745 21.1629 10.6 20.0345 10.6 18.6426V13.6018C10.6 12.2099 11.6745 11.0815 13 11.0815C14.3255 11.0815 15.4 12.2099 15.4 13.6018V18.6426C15.4 20.0345 14.3255 21.1629 13 21.1629Z" stroke="white"/>
<path d="M5.8 13.1218C5.8 9.32548 8.91186 6.04073 13 6.04073C17.0798 6.04073 20.2 9.34226 20.2 13.1469V19.1226C20.2 22.1311 18.2457 24.8183 15.4 25.804V31C20.8082 29.8848 25 25.0756 25 19.1226V13.1469C25 6.34614 19.5241 1 13 1C6.48427 1 1 6.31263 1 13.1218V19.1226C1 25.0756 5.19184 29.8848 10.6 31V25.804C7.75428 24.8183 5.8 22.1311 5.8 19.1226V13.1218Z" stroke="white"/>
</svg>
