<svg width="32" height="32" viewBox="0 0 32 32" fill="none" xmlns="http://www.w3.org/2000/svg">
<path opacity="0.9" d="M19.3488 6.89279L19.3488 6.89278L19.3453 6.89635C18.9451 7.30456 18.721 7.85338 18.721 8.42499C18.721 8.9966 18.9451 9.54542 19.3453 9.95363L19.3453 9.95364L19.3488 9.95718L22.0428 12.6512L22.0428 12.6512L22.0464 12.6547C22.4546 13.0549 23.0034 13.279 23.575 13.279C24.1466 13.279 24.6954 13.0549 25.1037 12.6547L25.1037 12.6547L25.1072 12.6512L30.4328 7.32559C30.5588 7.19964 30.7188 7.16353 30.8512 7.191C30.9772 7.21714 31.079 7.29874 31.1211 7.44405C31.5326 8.86515 31.6119 10.3685 31.3445 11.8362C30.9946 13.7565 30.0677 15.5247 28.6875 16.905C27.3072 18.2852 25.539 19.2121 23.6187 19.562C21.9144 19.8725 20.1621 19.7155 18.5464 19.1138C17.9915 18.9072 17.3358 19.0084 16.8896 19.4546L5.74392 30.6003C5.16784 31.1764 4.38651 31.5 3.57182 31.5C2.75712 31.5 1.97579 31.1764 1.39971 30.6003C0.823637 30.0242 0.5 29.2429 0.5 28.4282C0.5 27.6135 0.823637 26.8322 1.39971 26.2561L12.5454 15.1104C12.9916 14.6642 13.0928 14.0085 12.8862 13.4537C12.2845 11.8379 12.1275 10.0856 12.438 8.38135C12.7879 6.46097 13.7148 4.69282 15.095 3.31255C16.4753 1.93228 18.2435 1.00544 20.1638 0.655538C21.6315 0.388123 23.1348 0.467407 24.556 0.878902C24.7013 0.920975 24.7829 1.02281 24.809 1.14882C24.8365 1.28119 24.8004 1.44122 24.6744 1.56717L19.3656 6.87596L19.3488 6.89279Z" stroke="white"/>
</svg>
