<svg width="32" height="33" viewBox="0 0 32 33" fill="none" xmlns="http://www.w3.org/2000/svg">
<path d="M25.7004 8.61285C25.6931 8.61822 25.6745 8.63056 25.6468 8.64293L25.3565 7.6939C24.8275 7.78681 23.7057 8.11508 22.4922 8.70016C21.4045 9.2246 20.202 9.97483 19.2813 10.9848C19.1997 10.9431 19.1175 10.9078 19.0381 10.8776C18.7971 10.7859 18.5425 10.7272 18.3186 10.6888C18.0929 10.6501 17.8863 10.6299 17.7367 10.6194C17.6615 10.6141 17.5997 10.6111 17.5558 10.6095C17.5339 10.6087 17.5164 10.6082 17.5039 10.6079L17.489 10.6076L17.4844 10.6075L17.4829 10.6075L17.4824 10.6075L17.4821 10.6075C17.482 10.6075 17.4819 10.6075 17.4765 11.1074L17.4819 10.6075L16.0412 10.5917L17.1619 11.4961L17.162 11.4962L17.1622 11.4963L17.1623 11.4964L17.1625 11.4965L17.1629 11.4969L17.1691 11.5021C17.1752 11.5071 17.1849 11.5152 17.1977 11.5262C17.2234 11.5483 17.2614 11.5817 17.3075 11.6245C17.4005 11.7107 17.5234 11.8323 17.6454 11.9747C17.9137 12.2879 18.0815 12.5922 18.0856 12.8059C18.0978 13.4328 18.0908 17.6923 18.0872 19.8825C18.0865 20.3121 18.086 20.6621 18.0857 20.8894C17.7899 21.1619 17.4958 21.3698 17.23 21.5127C16.9114 21.6839 16.6672 21.744 16.5236 21.744C15.9781 21.744 15.6823 21.6509 15.5012 21.5502C15.3615 21.4727 15.2614 21.3765 15.1491 21.2442V11.6551V10.5984L14.3393 11.2626C14.3353 11.2653 14.3269 11.2707 14.3154 11.2768C14.2889 11.2908 14.2615 11.3002 14.239 11.3027C14.2228 11.3045 14.2089 11.3034 14.1881 11.2922C14.164 11.2792 14.0994 11.235 14.0171 11.096C13.7209 10.596 13.5297 9.31817 15.5783 7.61209L15.1256 6.74582L15.2583 7.22788C15.1256 6.74582 15.1254 6.74587 15.1253 6.74591L15.1248 6.74603L15.1237 6.74634L15.1205 6.74724L15.11 6.75021L15.0734 6.76091C15.0421 6.77021 14.9973 6.7839 14.9399 6.80233C14.8251 6.83918 14.6601 6.895 14.4527 6.97257C14.0381 7.12767 13.4538 7.37001 12.7641 7.72199C11.3857 8.42547 9.58011 9.57035 7.86973 11.3379C6.17237 13.0919 5.19481 14.6158 4.64431 15.9572C4.09179 17.3036 3.98009 18.4406 3.98009 19.399V21.196L4.90823 19.6573C5.26554 19.0649 6.56031 17.1168 7.88296 15.7229C8.55899 15.0105 9.17482 14.517 9.63378 14.3613C9.84755 14.2887 9.96142 14.3115 10.0262 14.3457C10.0912 14.3801 10.2028 14.4768 10.3065 14.7529V22.2701C10.3049 22.2769 10.3024 22.2862 10.2986 22.2971C10.2867 22.3318 10.2655 22.3726 10.2282 22.4079C10.1792 22.4543 9.95956 22.6254 9.24199 22.4439L8.12857 22.1624L8.68109 23.1692C8.98589 23.7246 9.82055 24.5465 11.1103 25.2786C12.4196 26.0218 14.2404 26.698 16.5687 26.9255L16.7998 26.9481L16.9662 26.7861C17.4883 26.2776 18.0868 25.66 18.5528 25.1719C18.7385 24.9772 18.9038 24.8026 19.0355 24.6628L20.9228 26.2202L21.202 26.4506L21.5081 26.2572L21.241 25.8345C21.5081 26.2572 21.5082 26.2572 21.5083 26.2571L21.5087 26.2569L21.5096 26.2563L21.5126 26.2544L21.523 26.2478L21.5605 26.2234C21.5927 26.2023 21.6393 26.1715 21.6986 26.1313C21.8172 26.0508 21.9868 25.9328 22.1946 25.7798C22.6097 25.4741 23.1792 25.0276 23.7998 24.4621C25.0342 23.3374 26.5026 21.7136 27.3396 19.7636L27.978 18.276L26.6119 19.1444C26.2218 19.3924 25.8179 19.7162 25.4396 20.0195L25.4141 20.0399C25.0171 20.3582 24.6471 20.6533 24.2998 20.872C23.9418 21.0975 23.6815 21.1929 23.502 21.1952C23.4012 21.1965 23.2893 21.1718 23.1625 21.01V12.0235L23.1782 12.0007C23.2443 11.9048 23.3393 11.7675 23.4545 11.6022C23.685 11.2714 23.9958 10.8292 24.3178 10.3823C24.6406 9.9344 24.9715 9.48627 25.2431 9.14175C25.3794 8.96878 25.496 8.8281 25.5863 8.72847C25.6318 8.6783 25.6652 8.64457 25.6874 8.62432C25.6934 8.61882 25.6977 8.61511 25.7004 8.61285ZM25.7004 8.61285C25.7027 8.61116 25.7039 8.61017 25.704 8.61007C25.704 8.60998 25.7029 8.61083 25.7004 8.61285ZM16.0001 1.32788C24.5754 1.32788 31.5001 8.26721 31.5001 16.8279C31.5001 25.3882 24.5605 32.3279 16.0001 32.3279C7.43973 32.3279 0.500092 25.3882 0.500092 16.8279C0.500092 8.26752 7.43973 1.32788 16.0001 1.32788Z" stroke="white"/>
</svg>
