<svg width="26" height="32" viewBox="0 0 26 32" fill="none" xmlns="http://www.w3.org/2000/svg">
<path opacity="0.9" d="M0.833344 31V1C0.833344 0.723858 1.0572 0.5 1.33334 0.5H15.2762C15.4098 0.5 15.5378 0.553459 15.6317 0.648455L15.9873 0.29691L15.6317 0.648455L24.451 9.56816C24.5435 9.66176 24.5954 9.78808 24.5954 9.91971V31C24.5954 31.2761 24.3716 31.5 24.0954 31.5H1.33334C1.0572 31.5 0.833344 31.2761 0.833344 31Z" stroke="white"/>
<path opacity="0.9" fill-rule="evenodd" clip-rule="evenodd" d="M5 19.2706V14C5 13.4477 5.44772 13 6 13H7.2C7.75228 13 8.2 13.4477 8.2 14V19.3194C8.2082 20.9144 8.68398 21.9874 9.47129 22.7319C10.2777 23.4865 11.3548 23.9231 13 23.9231C14.6487 23.9231 15.7373 23.4846 16.5417 22.7319C17.3223 21.9936 17.8 20.9092 17.8 19.2706V14C17.8 13.4477 18.2477 13 18.8 13H20C20.5523 13 21 13.4477 21 14V19.2706C21 21.5216 20.3137 23.4824 18.7767 24.934C17.2622 26.3528 15.313 27 13 27C10.6836 27 8.74873 26.3509 7.23633 24.934C5.70703 23.4896 5.01025 21.4948 5 19.2706ZM14.6 19.1539V14C14.6 13.4477 14.1523 13 13.6 13H12.4C11.8477 13 11.4 13.4477 11.4 14V19.171C11.4026 19.7514 11.5612 20.1417 11.8237 20.4126C12.0926 20.687 12.4516 20.8457 13 20.8457C13.5496 20.8457 13.9124 20.6862 14.1806 20.4125C14.4407 20.1441 14.6 19.7497 14.6 19.1539Z" stroke="white"/>
<path opacity="0.9" d="M16.1937 6.32758V1.20711L23.9954 9.00881H18.7455C17.362 9.00881 16.1937 7.82245 16.1937 6.32758Z" stroke="white"/>
</svg>
