<svg width="32" height="33" viewBox="0 0 32 33" fill="none" xmlns="http://www.w3.org/2000/svg">
<path d="M26.1041 26.6843L26.6922 27.669L27.0133 26.5679L29.7079 17.3295L31.3303 20.2268L28.0474 32.2219L15.6648 29.0631L13.9699 26.0365L23.7439 28.5126L24.9158 28.8095L24.2959 27.7715L18.5626 18.1715L18.4171 17.9279H18.1333H6.66667H5.44342L6.31643 18.7847L13.3227 25.6612H9.80299L0.71728 16.8279L9.80299 7.99455H13.1866C12.987 8.19027 12.7063 8.46536 12.3711 8.79347C11.6838 9.46619 10.7675 10.3616 9.85137 11.2528C8.93494 12.1442 8.01966 13.0304 7.33393 13.685C6.99065 14.0126 6.70707 14.2802 6.51027 14.4609C6.45176 14.5146 6.40255 14.5591 6.36269 14.5945H6.03333V15.0945C6.03333 15.1615 6.04728 15.2803 6.13334 15.3953C6.22595 15.5191 6.35197 15.5722 6.44957 15.589C6.49577 15.597 6.53877 15.5976 6.57649 15.5945H18.1333H18.4171L18.5626 15.3509L24.2959 5.75092L24.9158 4.71297L23.7439 5.00986L14.0702 7.46053L15.7896 4.59485L28.1808 1.43383L31.4613 13.4205L29.7111 16.3375L27.0133 7.08788L26.6922 5.98676L26.1041 6.97151L20.3707 16.5715L20.2176 16.8279L20.3707 17.0843L26.1041 26.6843Z" stroke="white"/>
</svg>
