<svg width="32" height="25" viewBox="0 0 32 25" fill="none" xmlns="http://www.w3.org/2000/svg">
<mask id="path-1-inside-1_520_314" fill="white">
<path d="M27.131 2.36871C27.1221 2.35148 27.1074 2.33797 27.0894 2.33062C25.0147 1.3787 22.8253 0.699913 20.5759 0.311235C20.5555 0.307436 20.5344 0.310177 20.5156 0.319068C20.4968 0.327959 20.4813 0.342548 20.4712 0.360759C20.1731 0.901871 19.9025 1.45768 19.6604 2.02607C17.2357 1.65801 14.7693 1.65801 12.3446 2.02607C12.1009 1.45624 11.8259 0.900289 11.521 0.360759C11.5105 0.342943 11.4949 0.328691 11.4762 0.319857C11.4576 0.311024 11.4367 0.30802 11.4163 0.311235C9.16665 0.699097 6.97706 1.37794 4.9026 2.33067C4.88484 2.3382 4.86985 2.35105 4.85971 2.36746C0.711179 8.56275 -0.425261 14.6057 0.132238 20.5738C0.133806 20.5885 0.1383 20.6026 0.145452 20.6155C0.152604 20.6283 0.162269 20.6396 0.173871 20.6487C2.58952 22.4373 5.29146 23.8025 8.16438 24.6862C8.18461 24.6922 8.20621 24.692 8.22628 24.6854C8.24636 24.6788 8.26393 24.6663 8.27665 24.6494C8.89369 23.8098 9.44043 22.9208 9.91132 21.9913C9.91779 21.9786 9.92148 21.9646 9.92216 21.9503C9.92283 21.936 9.92047 21.9217 9.91523 21.9084C9.90999 21.8951 9.90199 21.8831 9.89176 21.8731C9.88153 21.8631 9.86929 21.8554 9.85586 21.8505C8.99369 21.5206 8.159 21.1229 7.35964 20.6612C7.34512 20.6526 7.33292 20.6407 7.32413 20.6263C7.31534 20.6119 7.31021 20.5956 7.30922 20.5788C7.30822 20.562 7.31139 20.5452 7.31842 20.5299C7.32546 20.5146 7.33616 20.5013 7.34957 20.4911C7.5173 20.3654 7.68514 20.2347 7.8453 20.1027C7.85953 20.0909 7.87675 20.0834 7.89502 20.081C7.91328 20.0785 7.93188 20.0812 7.9487 20.0887C13.1857 22.4788 18.8554 22.4788 24.0304 20.0887C24.0473 20.0807 24.066 20.0776 24.0846 20.0799C24.1031 20.0821 24.1206 20.0896 24.1351 20.1014C24.2953 20.2334 24.4631 20.3654 24.6321 20.4911C24.6456 20.5011 24.6564 20.5144 24.6635 20.5296C24.6707 20.5449 24.6739 20.5617 24.6731 20.5785C24.6722 20.5953 24.6672 20.6116 24.6585 20.6261C24.6498 20.6405 24.6377 20.6525 24.6233 20.6612C23.8257 21.1268 22.9903 21.5242 22.1258 21.8492C22.1124 21.8543 22.1002 21.8622 22.0901 21.8724C22.0799 21.8825 22.072 21.8947 22.0668 21.9081C22.0617 21.9215 22.0595 21.9358 22.0602 21.9502C22.061 21.9645 22.0648 21.9785 22.0714 21.9913C22.5502 22.9156 23.0961 23.8035 23.7048 24.6479C23.7172 24.6652 23.7347 24.6782 23.7548 24.6851C23.775 24.6919 23.7968 24.6922 23.8171 24.686C26.6952 23.8054 29.4018 22.44 31.8205 20.6487C31.8323 20.6401 31.8421 20.6291 31.8493 20.6164C31.8565 20.6037 31.8608 20.5896 31.8621 20.5751C32.5296 13.6753 30.7448 7.68187 27.131 2.36871ZM10.6934 16.9399C9.1167 16.9399 7.81754 15.4929 7.81754 13.716C7.81754 11.939 9.09151 10.492 10.6934 10.492C12.3078 10.492 13.5944 11.9515 13.5692 13.7159C13.5692 15.4929 12.2952 16.9399 10.6934 16.9399ZM21.3264 16.9399C19.7497 16.9399 18.4506 15.4929 18.4506 13.716C18.4506 11.939 19.7245 10.492 21.3264 10.492C22.9409 10.492 24.2275 11.9515 24.2023 13.7159C24.2023 15.4929 22.9409 16.9399 21.3264 16.9399Z"/>
</mask>
<path d="M27.131 2.36871L26.2424 2.82732L26.2701 2.88108L26.3042 2.9311L27.131 2.36871ZM27.0894 2.33062L26.6724 3.23952L26.6911 3.24809L26.7101 3.25589L27.0894 2.33062ZM20.5759 0.311235L20.3931 1.29447L20.4056 1.29663L20.5759 0.311235ZM20.4712 0.360759L21.3471 0.843328L21.3474 0.842812L20.4712 0.360759ZM19.6604 2.02607L19.5103 3.01475L20.2766 3.13107L20.5804 2.41796L19.6604 2.02607ZM12.3446 2.02607L11.4252 2.41931L11.7295 3.1309L12.4947 3.01475L12.3446 2.02607ZM11.521 0.360759L12.3915 -0.131337L12.3875 -0.138488L12.3833 -0.145572L11.521 0.360759ZM11.4163 0.311235L11.2606 -0.676577L11.2535 -0.675452L11.2463 -0.674225L11.4163 0.311235ZM4.9026 2.33067L5.29291 3.25135L5.30652 3.24558L5.31995 3.23941L4.9026 2.33067ZM4.85971 2.36746L5.69062 2.92386L5.70074 2.90875L5.71031 2.89328L4.85971 2.36746ZM0.132238 20.5738L-0.863521 20.6669L-0.862063 20.6804L0.132238 20.5738ZM0.173871 20.6487L-0.440966 21.4373L-0.431173 21.445L-0.421193 21.4523L0.173871 20.6487ZM8.16438 24.6862L7.87038 25.642L7.87705 25.644L8.16438 24.6862ZM8.27665 24.6494L9.07517 25.2515L9.08243 25.2416L8.27665 24.6494ZM9.91132 21.9913L9.01951 21.5389L9.01927 21.5394L9.91132 21.9913ZM9.85586 21.8505L9.49851 22.7844L9.50519 22.787L9.5119 22.7895L9.85586 21.8505ZM7.35964 20.6612L6.85284 21.5233L6.85947 21.5271L7.35964 20.6612ZM7.34957 20.4911L6.74997 19.6907L6.74464 19.6948L7.34957 20.4911ZM7.8453 20.1027L7.20955 19.3308L7.20922 19.331L7.8453 20.1027ZM7.9487 20.0887L8.3639 19.179L8.35748 19.1761L7.9487 20.0887ZM24.0304 20.0887L24.4497 20.9966L24.4597 20.9919L24.0304 20.0887ZM24.1351 20.1014L24.771 19.3297L24.7676 19.3268L24.1351 20.1014ZM24.6321 20.4911L25.231 19.6903L25.2288 19.6886L24.6321 20.4911ZM24.6233 20.6612L25.1275 21.5248L25.1362 21.5196L24.6233 20.6612ZM22.1258 21.8492L21.7739 20.9132L21.7702 20.9146L22.1258 21.8492ZM22.0714 21.9913L21.1824 22.4492L21.1835 22.4513L22.0714 21.9913ZM23.7048 24.6479L24.519 24.0672L24.516 24.0631L23.7048 24.6479ZM23.8171 24.686L23.5245 23.7298L23.5245 23.7298L23.8171 24.686ZM31.8205 20.6487L31.231 19.8409L31.2254 19.8451L31.8205 20.6487ZM31.8621 20.5751L30.8668 20.4788L30.8661 20.4857L31.8621 20.5751ZM13.5692 13.7159L12.5693 13.7016L12.5692 13.7087V13.7159H13.5692ZM24.2023 13.7159L23.2024 13.7016L23.2023 13.7087V13.7159H24.2023ZM28.0197 1.91011C27.9018 1.68178 27.7065 1.50283 27.4688 1.40535L26.7101 3.25589C26.5082 3.17312 26.3424 3.02118 26.2424 2.82732L28.0197 1.91011ZM27.5065 1.42172C25.3531 0.433742 23.0807 -0.270761 20.7462 -0.674162L20.4056 1.29663C22.5698 1.67059 24.6763 2.32366 26.6724 3.23952L27.5065 1.42172ZM20.7587 -0.671919C20.5315 -0.71416 20.2967 -0.683686 20.0878 -0.584833L20.9433 1.22297C20.772 1.30404 20.5795 1.32903 20.3931 1.29439L20.7587 -0.671919ZM20.0878 -0.584833C19.8789 -0.485982 19.7065 -0.323784 19.5951 -0.121294L21.3474 0.842812C21.256 1.00888 21.1146 1.1419 20.9433 1.22297L20.0878 -0.584833ZM19.5954 -0.121809C19.281 0.448767 18.9956 1.03484 18.7403 1.63418L20.5804 2.41796C20.8093 1.88052 21.0652 1.35497 21.3471 0.843328L19.5954 -0.121809ZM19.8104 1.0374C17.2863 0.65423 14.7187 0.65423 12.1946 1.0374L12.4947 3.01475C14.8199 2.66178 17.1851 2.66178 19.5103 3.01475L19.8104 1.0374ZM13.2641 1.63283C13.0059 1.02917 12.7146 0.440221 12.3915 -0.131337L10.6504 0.852856C10.9373 1.36036 11.196 1.8833 11.4252 2.41931L13.2641 1.63283ZM12.3833 -0.145572C12.2711 -0.336598 12.104 -0.489417 11.9038 -0.584129L11.0487 1.22384C10.8858 1.1468 10.7499 1.02248 10.6586 0.86709L12.3833 -0.145572ZM11.9038 -0.584129C11.7035 -0.678842 11.4794 -0.711056 11.2606 -0.676577L11.5719 1.29905C11.3939 1.3271 11.2116 1.30089 11.0487 1.22384L11.9038 -0.584129ZM11.2463 -0.674225C8.91129 -0.271629 6.63852 0.433 4.48524 1.42193L5.31995 3.23941C7.31561 2.32287 9.42202 1.66982 11.5862 1.2967L11.2463 -0.674225ZM4.51228 1.40999C4.30392 1.49832 4.12811 1.64914 4.00912 1.84164L5.71031 2.89328C5.61159 3.05297 5.46575 3.17808 5.29291 3.25135L4.51228 1.40999ZM4.0288 1.81106C-0.256363 8.21038 -1.44082 14.4858 -0.863428 20.6668L1.1279 20.4808C0.590298 14.7257 1.67872 8.91511 5.69062 2.92386L4.0288 1.81106ZM-0.862063 20.6804C-0.846199 20.8284 -0.80074 20.9716 -0.728405 21.1017L1.01931 20.1293C1.07734 20.2336 1.11381 20.3485 1.12654 20.4672L-0.862063 20.6804ZM-0.728405 21.1017C-0.656078 21.2317 -0.558336 21.3458 -0.440966 21.4373L0.788707 19.86C0.882874 19.9334 0.961287 20.025 1.01931 20.1293L-0.728405 21.1017ZM-0.421193 21.4523C2.08548 23.3083 4.88922 24.725 7.87039 25.642L8.45836 23.7304C5.69369 22.88 3.09356 21.5662 0.768934 19.845L-0.421193 21.4523ZM7.87705 25.644C8.09294 25.7088 8.32348 25.7059 8.53767 25.6357L7.9149 23.7351C8.08894 23.6781 8.27628 23.6757 8.4517 23.7283L7.87705 25.644ZM8.53767 25.6357C8.75187 25.5655 8.93942 25.4314 9.07511 25.2514L7.47818 24.0473C7.58844 23.9011 7.74084 23.7921 7.9149 23.7351L8.53767 25.6357ZM9.08243 25.2416C9.73204 24.3577 10.3076 23.4218 10.8034 22.4432L9.01927 21.5394C8.57323 22.4198 8.05534 23.2619 7.47086 24.0572L9.08243 25.2416ZM10.8031 22.4437C10.8735 22.305 10.9137 22.1529 10.921 21.9975L8.92327 21.9031C8.92926 21.7763 8.96207 21.6521 9.01951 21.5389L10.8031 22.4437ZM10.921 21.9975C10.9284 21.842 10.9027 21.6868 10.8457 21.5421L8.98476 22.2748C8.93825 22.1567 8.91728 22.03 8.92327 21.9031L10.921 21.9975ZM10.8457 21.5421C10.7887 21.3973 10.7017 21.2663 10.5903 21.1576L9.19318 22.5886C9.10231 22.4999 9.03128 22.3929 8.98476 22.2748L10.8457 21.5421ZM10.5903 21.1576C10.479 21.0488 10.3459 20.965 10.1998 20.9115L9.5119 22.7895C9.39269 22.7458 9.28406 22.6773 9.19318 22.5886L10.5903 21.1576ZM10.2132 20.9165C9.40037 20.6055 8.61344 20.2306 7.85981 19.7953L6.85947 21.5271C7.70456 22.0153 8.587 22.4357 9.49851 22.7844L10.2132 20.9165ZM7.86642 19.7991C7.99346 19.8738 8.10014 19.9786 8.17706 20.1043L6.4712 21.1483C6.5657 21.3027 6.69677 21.4315 6.85285 21.5233L7.86642 19.7991ZM8.17706 20.1043C8.25398 20.23 8.29877 20.3726 8.30747 20.5197L6.31097 20.6379C6.32166 20.8186 6.37669 20.9939 6.4712 21.1483L8.17706 20.1043ZM8.30747 20.5197C8.31618 20.6668 8.28853 20.8138 8.22697 20.9477L6.40988 20.1121C6.33424 20.2766 6.30027 20.4572 6.31097 20.6379L8.30747 20.5197ZM8.22697 20.9477C8.16541 21.0816 8.07183 21.1982 7.9545 21.2873L6.74464 19.6948C6.60049 19.8043 6.48551 19.9476 6.40988 20.1121L8.22697 20.9477ZM7.94915 21.2914C8.12667 21.1584 8.30701 21.018 8.48137 20.8743L7.20922 19.331C7.06326 19.4513 6.90792 19.5724 6.74999 19.6908L7.94915 21.2914ZM8.48105 20.8745C8.35156 20.9812 8.19485 21.0496 8.02855 21.072L7.76149 19.0899C7.55864 19.1172 7.36749 19.2007 7.20955 19.3308L8.48105 20.8745ZM8.02855 21.072C7.86226 21.0944 7.69303 21.0699 7.53992 21.0014L8.35748 19.1761C8.17073 19.0924 7.96431 19.0626 7.76149 19.0899L8.02855 21.072ZM7.53352 20.9985C13.0326 23.5081 19.0071 23.5102 24.4497 20.9966L23.6111 19.1809C18.7037 21.4473 13.3387 21.4494 8.36389 19.179L7.53352 20.9985ZM24.4597 20.9919C24.3056 21.0651 24.1338 21.0932 23.9644 21.0726L24.2048 19.0871C23.9983 19.0621 23.7889 19.0963 23.6011 19.1856L24.4597 20.9919ZM23.9644 21.0726C23.7949 21.0521 23.6348 20.9839 23.5026 20.876L24.7676 19.3268C24.6065 19.1953 24.4113 19.1121 24.2048 19.0871L23.9644 21.0726ZM23.4992 20.8731C23.6711 21.0148 23.852 21.1571 24.0354 21.2935L25.2288 19.6886C25.0742 19.5737 24.9195 19.452 24.771 19.3297L23.4992 20.8731ZM24.0332 21.2919C23.9151 21.2036 23.8206 21.0876 23.7581 20.9542L25.5689 20.1051C25.4921 19.9412 25.376 19.7987 25.231 19.6903L24.0332 21.2919ZM23.7581 20.9542C23.6955 20.8208 23.6668 20.674 23.6744 20.5267L25.6717 20.6302C25.6811 20.4494 25.6458 20.269 25.5689 20.1051L23.7581 20.9542ZM23.6744 20.5267C23.682 20.3795 23.7258 20.2365 23.8018 20.1102L25.5152 21.1419C25.6086 20.9868 25.6624 20.8111 25.6717 20.6302L23.6744 20.5267ZM23.8018 20.1102C23.8779 19.9839 23.9838 19.8784 24.1103 19.8028L25.1362 21.5196C25.2916 21.4267 25.4218 21.297 25.5152 21.1419L23.8018 20.1102ZM24.1191 19.7976C23.3702 20.2348 22.5857 20.608 21.7739 20.9132L22.4778 22.7852C23.3949 22.4404 24.2813 22.0188 25.1274 21.5248L24.1191 19.7976ZM21.7702 20.9146C21.6252 20.9698 21.4935 21.055 21.3837 21.1645L22.7964 22.5802C22.707 22.6695 22.5997 22.7389 22.4815 22.7838L21.7702 20.9146ZM21.3837 21.1645C21.2739 21.274 21.1885 21.4055 21.133 21.5504L23.0007 22.2657C22.9555 22.3838 22.8858 22.491 22.7964 22.5802L21.3837 21.1645ZM21.133 21.5504C21.0775 21.6952 21.0532 21.8502 21.0618 22.0051L23.0587 21.8953C23.0657 22.0215 23.0459 22.1478 23.0007 22.2657L21.133 21.5504ZM21.0618 22.0051C21.0703 22.16 21.1114 22.3114 21.1824 22.4492L22.9604 21.5334C23.0183 21.6457 23.0518 21.769 23.0587 21.8953L21.0618 22.0051ZM21.1835 22.4513C21.6847 23.419 22.2563 24.3486 22.8936 25.2327L24.516 24.0631C23.9359 23.2584 23.4156 22.4122 22.9594 21.5314L21.1835 22.4513ZM22.8907 25.2286C23.0248 25.4166 23.2147 25.5578 23.4335 25.632L24.0761 23.7381C24.2547 23.7987 24.4096 23.9138 24.519 24.0672L22.8907 25.2286ZM23.4335 25.632C23.6523 25.7063 23.8889 25.7098 24.1097 25.6422L23.5245 23.7298C23.7047 23.6746 23.8977 23.6775 24.0761 23.7381L23.4335 25.632ZM24.1097 25.6423C27.0966 24.7283 29.9056 23.3113 32.4157 21.4523L31.2254 19.8451C28.8981 21.5687 26.2938 22.8824 23.5245 23.7298L24.1097 25.6423ZM32.41 21.4564C32.5368 21.3639 32.6423 21.2454 32.7196 21.1088L30.9789 20.1239C31.0419 20.0127 31.1278 19.9162 31.231 19.8409L32.41 21.4564ZM32.7196 21.1088C32.7969 20.9723 32.8441 20.8208 32.8581 20.6645L30.8661 20.4857C30.8776 20.3584 30.916 20.2351 30.9789 20.1239L32.7196 21.1088ZM32.8575 20.6714C33.5491 13.5216 31.6928 7.2976 27.9579 1.80632L26.3042 2.9311C29.7967 8.06615 31.51 13.829 30.8668 20.4788L32.8575 20.6714ZM10.6934 15.9399C9.77155 15.9399 8.81754 15.0491 8.81754 13.716H6.81754C6.81754 15.9368 8.46186 17.9399 10.6934 17.9399V15.9399ZM8.81754 13.716C8.81754 12.3768 9.75173 11.492 10.6934 11.492V9.49195C8.43128 9.49195 6.81754 11.5012 6.81754 13.716H8.81754ZM10.6934 11.492C11.6543 11.492 12.588 12.3944 12.5693 13.7016L14.5691 13.7301C14.6009 11.5087 12.9614 9.49195 10.6934 9.49195V11.492ZM12.5692 13.7159C12.5692 15.0551 11.635 15.9399 10.6934 15.9399V17.9399C12.9554 17.9399 14.5692 15.9308 14.5692 13.7159H12.5692ZM21.3264 15.9399C20.4046 15.9399 19.4506 15.0491 19.4506 13.716H17.4506C17.4506 15.9367 19.0949 17.9399 21.3264 17.9399V15.9399ZM19.4506 13.716C19.4506 12.3767 20.3848 11.492 21.3264 11.492V9.49195C19.0643 9.49195 17.4506 11.5012 17.4506 13.716H19.4506ZM21.3264 11.492C22.2874 11.492 23.221 12.3944 23.2024 13.7016L25.2022 13.7301C25.2339 11.5087 23.5944 9.49195 21.3264 9.49195V11.492ZM23.2023 13.7159C23.2023 15.0582 22.278 15.9399 21.3264 15.9399V17.9399C23.6038 17.9399 25.2023 15.9277 25.2023 13.7159H23.2023Z" fill="white" mask="url(#path-1-inside-1_520_314)"/>
</svg>
