<svg width="247" height="225" viewBox="0 0 247 225" version="1.1" xmlns="http://www.w3.org/2000/svg" xmlns:xlink="http://www.w3.org/1999/xlink">
<g id="Canvas" fill="none">
<g id="Union">
<path d="M 0 0L 0 100.674C 0.158203 136.383 10.915 168.411 34.5229 191.6C 57.8711 214.349 87.7407 224.77 123.5 224.77C 159.207 224.77 189.297 214.379 212.677 191.6C 236.404 168.294 247 136.814 247 100.674L 247 0L 197.6 0L 197.6 100.674C 197.6 126.982 190.226 144.392 178.175 156.245C 165.757 168.33 148.952 175.37 123.5 175.37C 98.1011 175.37 81.4751 168.361 69.0259 156.246C 56.8721 144.292 49.5269 127.066 49.3999 101.458L 49.3999 0L 0 0Z" fill="white"/>
<path d="M 148.2 0L 148.2 98.8C 148.2 108.367 145.742 114.698 141.725 119.008C 137.585 123.403 131.984 125.962 123.5 125.962C 115.034 125.962 109.492 123.414 105.342 119.008C 101.289 114.66 98.8403 108.393 98.7998 99.075L 98.7998 0L 148.2 0Z" fill="white"/>
</g>
</g>
</svg>
