<?xml version="1.0" standalone="no"?>
<!DOCTYPE svg PUBLIC "-//W3C//DTD SVG 20010904//EN"
 "http://www.w3.org/TR/2001/REC-SVG-20010904/DTD/svg10.dtd">
<svg version="1.0" xmlns="http://www.w3.org/2000/svg"
 width="120.000000pt" height="120.000000pt" viewBox="0 0 120.000000 120.000000"
 preserveAspectRatio="xMidYMid meet">
<metadata>
Created by potrace 1.14, written by Peter Selinger 2001-2017
</metadata>
<g transform="translate(0.000000,120.000000) scale(0.100000,-0.100000)"
fill="#000000" stroke="none">
<path d="M388 1195 c-2 -1 -28 -5 -58 -9 -205 -22 -290 -107 -318 -316 -5 -41
-9 -166 -9 -278 0 -520 69 -588 587 -589 249 -1 341 10 432 49 93 40 146 129
166 278 15 116 7 531 -12 608 -54 212 -155 258 -573 259 -116 1 -213 0 -215
-2z"/>
</g>
</svg>
