<svg width="736" height="176" viewBox="0 0 736 176" fill="none" xmlns="http://www.w3.org/2000/svg">
<path d="M372 52H388V108.176H436V124H372V52Z" fill="white"/>
<path d="M448 52H520V67.033H492V124H476V67.033H448V52Z" fill="white"/>
<path fill-rule="evenodd" clip-rule="evenodd" d="M618.488 59.064C613.643 54.6219 606.666 52 598.066 52H556V124H572V98.4877H598.362L612.194 124L632 124L614.691 94.6308C621.622 90.5369 625.745 83.8113 625.745 75.7363C625.745 69.5242 623.315 63.489 618.488 59.064ZM572 83.6484V67.033H597.718C602.407 67.033 605.187 68.3869 606.813 69.9399C608.506 71.557 609.313 73.7402 609.313 75.8755C609.313 77.9265 608.562 79.7633 607.012 81.0961C605.47 82.4226 602.67 83.6484 597.718 83.6484H572Z" fill="white"/>
<path d="M656 124H673L696 71.7803L719 124H736L704 52H688L656 124Z" fill="white"/>
<path d="M256 84.2485L256 52H272L272 84.5C272.041 92.7028 274.42 98.2208 278.357 102.05C282.389 105.931 287.774 108.176 296 108.176C304.243 108.176 309.687 105.921 313.709 102.05C317.611 98.2528 320 92.6757 320 84.2485L320 52H336L336 84.2485C336 95.8253 332.568 105.909 324.883 113.375C317.311 120.672 307.565 124 296 124C284.418 124 274.744 120.662 267.182 113.375C259.535 105.947 256.051 95.6873 256 84.2485Z" fill="white"/>
<path fill-rule="evenodd" clip-rule="evenodd" d="M176 88C176 10.3529 165.647 0 88 0C10.3528 0 0 10.3529 0 88C0 165.647 10.3528 176 88 176C165.647 176 176 165.647 176 88ZM44 88.6675V52.8H61.6V88.9471C61.6451 98.0704 64.2619 104.208 68.5921 108.467C73.0275 112.783 78.9513 115.28 88 115.28C97.068 115.28 103.055 112.772 107.479 108.466C111.772 104.243 114.4 98.0403 114.4 88.6675V52.8H132V88.6675C132 101.543 128.225 112.759 119.772 121.062C111.442 129.178 100.721 132.88 88 132.88C75.2598 132.88 64.618 129.167 56.2998 121.062C47.8887 112.801 44.0564 101.39 44 88.6675ZM96.8 88V52.8H79.2V88.0979C79.2145 91.4176 80.0868 93.6504 81.5305 95.1997C83.0092 96.7692 84.9836 97.6772 88 97.6772C91.0228 97.6772 93.0182 96.7652 94.4931 95.1995C95.924 93.6639 96.8 91.4084 96.8 88Z" fill="white"/>
</svg>
